<?xml version="1.0" standalone="no"?><!DOCTYPE svg PUBLIC "-//W3C//DTD SVG 1.1//EN" "http://www.w3.org/Graphics/SVG/1.1/DTD/svg11.dtd"><svg t="1660558575754" class="icon" viewBox="0 0 1024 1024" version="1.1" xmlns="http://www.w3.org/2000/svg" p-id="7531" xmlns:xlink="http://www.w3.org/1999/xlink" width="200" height="200"><defs><style type="text/css">@font-face { font-family: feedback-iconfont; src: url("//at.alicdn.com/t/font_1031158_u69w8yhxdu.woff2?t=1630033759944") format("woff2"), url("//at.alicdn.com/t/font_1031158_u69w8yhxdu.woff?t=1630033759944") format("woff"), url("//at.alicdn.com/t/font_1031158_u69w8yhxdu.ttf?t=1630033759944") format("truetype"); }
</style></defs><path d="M412.928366 647.021714l-168.228572-95.744a33.792 33.792 0 0 0-33.353143 58.660572l168.228572 95.817143a33.792 33.792 0 0 0 33.353143-58.733715z m392.192-280.137143a33.792 33.792 0 0 0-33.353143-58.660571l-263.533714 149.942857-263.460572-149.942857a33.792 33.792 0 0 0-33.426286 58.660571l267.264 152.137143v324.900572a33.792 33.792 0 1 0 67.510858 0V517.632c0-1.024-0.512-1.974857-0.658286-2.998857l259.657143-147.748572z m95.012571-155.428571L562.432366 13.897143a100.937143 100.937143 0 0 0-101.961143 0L123.063223 211.456C91.75808 229.741714 72.667794 263.314286 72.740937 299.52V718.994286c0 36.717714 19.675429 70.582857 51.419429 88.649143l337.554285 191.853714c30.939429 17.554286 68.754286 17.554286 99.693715 0l337.627428-191.853714c31.817143-18.139429 51.419429-52.004571 51.419429-88.649143V299.52c0-36.205714-19.090286-69.705143-50.322286-88.064z m-17.188571 507.611429c0 12.141714-6.582857 23.405714-17.188572 29.476571l-337.554285 191.926857a33.499429 33.499429 0 0 1-33.206858 0l-337.554285-191.926857a33.938286 33.938286 0 0 1-17.188572-29.549714V299.52c0-12.141714 6.363429-23.259429 16.822857-29.403429L494.409509 72.484571a33.645714 33.645714 0 0 1 33.938285 0l337.773715 197.705143c10.386286 6.070857 16.749714 17.188571 16.749714 29.257143V718.994286zM792.905509 445.074286l-157.549715 92.891428c-21.723429 12.873143-39.424 41.106286-39.424 63.122286v186.148571c0 21.942857 17.627429 29.403429 39.424 16.603429L792.905509 710.948571c21.723429-12.873143 39.424-41.106286 39.424-63.122285V461.750857c0-22.016-17.627429-29.476571-39.424-16.603428z" fill="#42b983" p-id="7532"></path></svg>